<?xml version="1.0" encoding="utf-8"?>
<!-- Svg Vector Icons : http://www.onlinewebfonts.com/icon -->
<!-- <!DOCTYPE svg PUBLIC "-//W3C//DTD SVG 1.1//EN" "http://www.w3.org/Graphics/SVG/1.1/DTD/svg11.dtd"> -->
<svg version="1.1" xmlns="http://www.w3.org/2000/svg" xmlns:xlink="http://www.w3.org/1999/xlink" x="0px" y="0px" viewBox="0 0 256 256" enable-background="new 0 0 256 256" xml:space="preserve">
<!-- <metadata> Svg Vector Icons : http://www.onlinewebfonts.com/icon </metadata> -->
<!-- <g><g><g> -->
<path fill="#FFA07A" d="M117.7,10.4c-15.7,1.6-28,5.2-42.1,12.1c-12,5.9-20.6,12.1-30.4,21.8c-10,9.8-16.7,19.1-22.7,31.3c-4.3,8.8-6.7,15.1-8.6,22.8c-5.1,20.4-5.1,38.8,0,59.2c5.9,23.4,20.7,46.4,40.1,62.2c11.9,9.7,28.9,18.4,43.4,22.1c21.4,5.6,42.4,5.4,63.2-0.5c19.3-5.5,36.8-15.9,51.3-30.6c6.3-6.3,9.5-10.3,14.6-17.9c16.2-24.2,23-55.7,18-83.7c-0.4-2.3-0.7-5.1-0.7-6.3c0-3-1.2-4.9-3.6-6.1c-3.7-1.7-6.1-1-7.9,2.3c-0.8,1.3-1.9,2.3-4,3.4c-2.7,1.4-3.3,1.5-7.9,1.5c-4.4,0-5.2-0.1-7.7-1.4c-3.5-1.7-6.9-5.4-8.2-9c-0.8-2-1-3.8-1-7.3c0-7.8-1.1-8.9-8.4-8.4c-5.6,0.4-8.6-0.2-12.4-2.7c-5-3.1-7.5-8.5-7.4-15.5c0.1-5.2-0.6-6.9-3.2-8c-1.4-0.6-2.3-0.6-5-0.2c-11.9,2-21.8-8.1-19.7-19.8c0.8-4.2,2.6-7.5,4.9-9c2.5-1.5,3.5-3,3.5-5.1c0-2.6-1.2-4.3-3.5-5.2C146.8,10.7,127,9.4,117.7,10.4z M117.8,49c2.6,1.1,3.5,2.5,3.5,5.3c0,2-0.2,2.6-1.6,3.9c-1.5,1.5-1.8,1.6-6.9,2C98.4,61.2,87.4,66,77.4,75.5c-10.7,10.3-16.1,22-17.3,37.4c-0.3,5.1-0.4,5.4-2,6.9c-1.3,1.3-1.9,1.6-3.9,1.6c-4.5,0-6.2-2.9-5.7-9.5c1.4-18.6,9.3-34.3,23.1-46.7c10.1-9,23.6-14.9,37.4-16.3C115,48.2,116.1,48.2,117.8,49z M133.8,86.2c18.8,2.6,33.8,17.9,36.1,37c3.2,26.6-20.1,50-46.7,46.7c-25.4-3.1-42.4-27.7-36.1-52.3c3.9-15.4,17.3-28.1,32.3-30.9C125.8,85.6,128.4,85.5,133.8,86.2z M192.7,123.6c0.3,0,1.3,0.7,2.2,1.5c2.9,2.9,1.7,8-2.2,9.3c-2.3,0.7-4.2,0.2-6-1.5c-1.9-2-2-5.6-0.2-7.5c1.3-1.3,3.7-2.3,4.9-2C191.8,123.5,192.4,123.6,192.7,123.6z M58.8,141.5c0.9,0.3,1.9,1.1,2.4,1.6c1.2,1.4,4.5,10.1,4.5,12.1c0,3.7-3.6,6.5-7.1,5.4c-2.5-0.7-3.2-1.6-5.4-7.2c-2.9-7-2.6-9.8,1.2-11.8C56.3,140.6,56.8,140.6,58.8,141.5z M194.7,159.2l1.7,1.7v8v8l-1.7,1.7c-1.3,1.3-2.1,1.7-3.4,1.7c-2.4,0-4.5-1.1-5.5-3c-1-2-1.1-14.7,0-16.7c1-2.1,2.6-3,5.1-3C192.7,157.5,193.4,157.8,194.7,159.2z M164.3,185.4c1.7,1,2.8,3.6,2.4,5.7c-0.2,1.3-1.6,3-6.3,7.7c-5.6,5.5-6.2,6-7.9,6c-4.7,0-7.6-4.3-5.5-8.3c1.1-2.1,11.3-11.8,12.6-12C161.1,184.2,162.9,184.5,164.3,185.4z M84.9,186.3c2.6,1.1,3.5,2.5,3.5,5.3c0,2.1-0.2,2.6-1.6,4l-1.6,1.6l-7.5,0.1c-7.2,0.1-7.6,0.1-9.2-1c-1.1-0.7-2-1.9-2.4-3.1c-0.6-1.8-0.6-2.2,0.2-3.9c1.5-3.1,3.2-3.6,10.7-3.6C81.2,185.6,83.8,185.8,84.9,186.3z M127.8,199c4,3.9,4.1,4.2,4.1,6.3c0,4.1-4,7.1-7.5,5.6c-2.2-1-8.2-7.1-8.7-9c-1-3.6,1.8-7.1,5.7-7.1C123.6,194.9,123.9,195.1,127.8,199z"/>
<!-- </g></g></g> -->
</svg>